<svg xmlns="http://www.w3.org/2000/svg" viewBox="0 0 240 60">
  <defs>
    <linearGradient id="brandGradient" x1="0%" y1="0%" x2="100%" y2="100%">
      <stop offset="0%" style="stop-color:#4F46E5" />
      <stop offset="100%" style="stop-color:#7C3AED" />
    </linearGradient>
  </defs>
  <g fill="none" fillRule="evenodd">
    <path d="M30 10c11.046 0 20 8.954 20 20s-8.954 20-20 20S10 41.046 10 30 18.954 10 30 10zm0 8c-6.627 0-12 5.373-12 12s5.373 12 12 12 12-5.373 12-12-5.373-12-12-12zm0 5c3.866 0 7 3.134 7 7s-3.134 7-7 7-7-3.134-7-7 3.134-7 7-7z" fill="url(#brandGradient)"/>
    <text x="70" y="40" fontFamily="Arial" fontSize="28" fontWeight="bold" fill="#1F2937">Footprint</text>
  </g>
</svg>