<svg xmlns="http://www.w3.org/2000/svg" viewBox="0 0 40 40">
  <defs>
    <linearGradient id="iconGradient" x1="0%" y1="0%" x2="100%" y2="100%">
      <stop offset="0%" style="stop-color:#4F46E5" />
      <stop offset="100%" style="stop-color:#7C3AED" />
    </linearGradient>
  </defs>
  <path d="M20 0c11.046 0 20 8.954 20 20s-8.954 20-20 20S0 31.046 0 20 8.954 0 20 0zm0 8C13.373 8 8 13.373 8 20s5.373 12 12 12 12-5.373 12-12S26.627 8 20 8zm0 5c3.866 0 7 3.134 7 7s-3.134 7-7 7-7-3.134-7-7 3.134-7 7-7z" fill="url(#iconGradient)"/>
</svg>